<?xml version="1.0" encoding="UTF-8" standalone="no"?>
<!-- Created with Inkscape (http://www.inkscape.org/) -->

<svg
   width="75"
   height="75"
   viewBox="0 0 19.84375 19.84375"
   version="1.1"
   id="svg1"
   inkscape:version="1.4.2 (f4327f4, 2025-05-13)"
   sodipodi:docname="ds.svg"
   xml:space="preserve"
   xmlns:inkscape="http://www.inkscape.org/namespaces/inkscape"
   xmlns:sodipodi="http://sodipodi.sourceforge.net/DTD/sodipodi-0.dtd"
   xmlns="http://www.w3.org/2000/svg"
   xmlns:svg="http://www.w3.org/2000/svg"><sodipodi:namedview
     id="namedview1"
     pagecolor="#ffffff"
     bordercolor="#000000"
     borderopacity="0.25"
     inkscape:showpageshadow="false"
     inkscape:pageopacity="0.0"
     inkscape:pagecheckerboard="true"
     inkscape:deskcolor="#d1d1d1"
     inkscape:document-units="px"
     showguides="false"
     inkscape:zoom="5.6568542"
     inkscape:cx="28.90299"
     inkscape:cy="39.332815"
     inkscape:window-width="1920"
     inkscape:window-height="1017"
     inkscape:window-x="-8"
     inkscape:window-y="-8"
     inkscape:window-maximized="1"
     inkscape:current-layer="layer1"
     showgrid="true"
     borderlayer="true"
     labelstyle="default"
     inkscape:antialias-rendering="true"
     inkscape:clip-to-page="false" /><defs
     id="defs1"><inkscape:path-effect
       effect="fillet_chamfer"
       id="path-effect3"
       is_visible="true"
       lpeversion="1"
       nodesatellites_param="F,0,0,1,0,0,0,1 @ F,0,0,1,0,0,0,1 @ F,0,0,1,0,0,0,1 @ F,0,0,1,0,0,0,1 @ F,0,0,1,0,0,0,1 @ F,0,0,1,0,0,0,1"
       radius="0"
       unit="px"
       method="auto"
       mode="F"
       chamfer_steps="1"
       flexible="false"
       use_knot_distance="true"
       apply_no_radius="true"
       apply_with_radius="true"
       only_selected="false"
       hide_knots="false" /><inkscape:path-effect
       effect="fillet_chamfer"
       id="path-effect2"
       is_visible="true"
       lpeversion="1"
       nodesatellites_param="F,0,0,1,0,0,0,1 @ F,0,0,1,0,0,0,1 @ F,0,0,1,0,0,0,1 @ F,0,0,1,0,0,0,1 @ F,0,0,1,0,0,0,1 @ F,0,0,1,0,0,0,1 @ F,0,0,1,0,0,0,1 @ F,0,0,1,0,0,0,1"
       radius="0"
       unit="px"
       method="auto"
       mode="F"
       chamfer_steps="1"
       flexible="false"
       use_knot_distance="true"
       apply_no_radius="true"
       apply_with_radius="true"
       only_selected="false"
       hide_knots="false" /></defs><g
     inkscape:label="Layer 1"
     inkscape:groupmode="layer"
     id="layer1"
     style="fill:#ff0101;fill-opacity:1"><path
       id="path1"
       style="display:inline;fill:#ffffff;fill-opacity:1;stroke-width:0.264583"
       d="m 11.979631,4.3759603 c 0,0 -0.144621,0.2806524 -0.213424,0.4227132 -0.05761,0.1189536 -0.166915,0.359668 -0.166915,0.359668 0,0 -0.360009,-0.044321 -0.540535,-0.061495 -0.222374,-0.021155 -0.445039,-0.040817 -0.668177,-0.05116 -0.21219,-0.00984 -0.4247791,-0.013717 -0.6371702,-0.010335 -0.1720872,0.00274 -0.3439812,0.013688 -0.5157308,0.024805 -0.1928142,0.01248 -0.3855795,0.026864 -0.5777425,0.047026 -0.1397339,0.01466 -0.4180623,0.053743 -0.4180623,0.053743 0,0 -0.1229262,-0.274533 -0.1896525,-0.4092774 C 7.9901591,4.6263212 7.856368,4.3806112 7.856368,4.3806112 c 0,0 -0.5154772,0.09172 -0.7704956,0.1503784 C 6.902637,4.573137 6.7213031,4.623443 6.540686,4.6756836 6.3293029,4.7368227 6.1189452,4.8018438 5.9107503,4.8730876 5.7348019,4.9332967 5.5603142,4.9979894 5.3877848,5.067391 5.2014028,5.1423649 4.834847,5.3071696 4.834847,5.3071696 c 0,0 -0.1572573,0.2274034 -0.2320272,0.3436483 C 4.5200031,5.779573 4.4408942,5.9107094 4.3630412,6.0425252 4.2883418,6.1690014 4.2159422,6.2968447 4.1449666,6.4254476 4.0520987,6.5937177 3.9578163,6.761402 3.8731486,6.9339437 3.7258713,7.2340755 3.5891703,7.5396018 3.4628377,7.8491333 3.3637592,8.0918888 3.2732007,8.3382599 3.1905029,8.5870728 3.1100352,8.8291761 3.0372938,9.074001 2.9729451,9.3208781 2.9221728,9.5156685 2.8801194,9.7127015 2.8401367,9.9099894 c -0.032818,0.1619326 -0.06188,0.3246556 -0.08785,0.4878256 -0.027853,0.174997 -0.052571,0.350549 -0.072864,0.526583 -0.014165,0.122872 -0.024405,0.246181 -0.034106,0.369486 -0.013525,0.171915 -0.026789,0.343936 -0.03359,0.516248 -0.0083,0.210352 -0.00924,0.420971 -0.00879,0.631486 3.026e-4,0.142133 0.00145,0.284336 0.00775,0.42633 0.010945,0.246524 0.052193,0.738457 0.052193,0.738457 0,0 0.3504152,0.253375 0.5307169,0.372587 0.1847659,0.122163 0.3728963,0.239418 0.5643067,0.350883 0.1937019,0.112799 0.3913262,0.218911 0.5906616,0.321427 0.1828555,0.09404 0.3674018,0.185063 0.5550049,0.269234 0.2164723,0.09712 0.4357692,0.188287 0.6578409,0.271818 0.26497,0.09967 0.8040853,0.273369 0.8040853,0.273369 0,0 0.2200752,-0.294355 0.3214343,-0.447518 0.1019125,-0.153999 0.1969577,-0.3126 0.2878378,-0.473356 0.06556,-0.115969 0.1855184,-0.353984 0.1855184,-0.353984 0,0 -0.4359409,-0.175612 -0.6475057,-0.277502 C 6.3100319,13.815719 5.917985,13.594002 5.917985,13.594002 l 0.2955892,-0.229443 c 0,0 0.2157662,0.09936 0.3462321,0.152962 0.1304659,0.0536 0.2977309,0.116948 0.4371826,0.166398 0.1394517,0.04945 0.2648458,0.09105 0.3989421,0.131258 0.1784752,0.05351 0.3581996,0.103278 0.5395019,0.146245 0.1900308,0.04503 0.3813746,0.08537 0.5741252,0.116788 0.1906505,0.03108 0.382859,0.05252 0.5751587,0.0708 0.1842427,0.01751 0.3689791,0.03174 0.5539714,0.03721 0.1735625,0.0051 0.3473437,0.0012 0.5208988,-0.0041 0.204149,-0.0063 0.408401,-0.01502 0.611849,-0.03307 0.190175,-0.01688 0.380025,-0.03943 0.56844,-0.07028 0.19363,-0.0317 0.385711,-0.07291 0.576709,-0.117822 0.190189,-0.04472 0.379604,-0.09354 0.566374,-0.150895 0.182061,-0.05591 0.361715,-0.119812 0.539502,-0.188102 0.20496,-0.07873 0.607198,-0.255282 0.607198,-0.255282 l 0.299723,0.225309 c 0,0 -0.358606,0.202118 -0.543636,0.291972 -0.22906,0.111235 -0.700215,0.305408 -0.700215,0.305408 0,0 0.224415,0.427581 0.350883,0.633036 0.135641,0.220359 0.436665,0.641821 0.436665,0.641821 0,0 0.485474,-0.150724 0.723987,-0.238228 0.234895,-0.08618 0.466697,-0.18105 0.695565,-0.282153 0.218897,-0.0967 0.435004,-0.200016 0.647506,-0.310059 0.250147,-0.129538 0.496917,-0.266045 0.737939,-0.411861 0.165351,-0.100036 0.325209,-0.208951 0.485242,-0.317293 0.141945,-0.0961 0.421163,-0.295073 0.421163,-0.295073 0,0 0.03824,-0.477188 0.04961,-0.716235 0.0073,-0.153013 0.01052,-0.306224 0.01189,-0.459404 0.0012,-0.129534 5.4e-5,-0.259105 -0.0031,-0.388606 -0.0038,-0.156491 -0.0095,-0.312978 -0.01912,-0.469222 -0.009,-0.147322 -0.02147,-0.294452 -0.03617,-0.441317 -0.01329,-0.132725 -0.02961,-0.265146 -0.04703,-0.397392 -0.0213,-0.161697 -0.04338,-0.323348 -0.07028,-0.484208 C 17.048302,10.121732 17.023664,9.9907048 16.995862,9.86038 16.967236,9.726191 16.9343,9.5929379 16.900777,9.4598877 16.860096,9.2984286 16.818622,9.1371046 16.772103,8.9772298 16.728298,8.8266835 16.680316,8.6773469 16.630509,8.5286784 16.576806,8.3683787 16.521531,8.2085236 16.461011,8.0506714 16.402504,7.8980717 16.338513,7.7476032 16.273942,7.5974691 16.198483,7.4220186 16.12223,7.2468119 16.039848,7.0745036 15.963886,6.9156228 15.883913,6.7585977 15.800069,6.6037313 15.688755,6.3981258 15.571092,6.1959461 15.450736,5.9954997 15.353604,5.8337323 15.253762,5.6735256 15.14998,5.5159424 15.104146,5.4463484 15.007869,5.3102702 15.007869,5.3102702 c 0,0 -0.485952,-0.221165 -0.734838,-0.3172933 C 14.077902,4.9176111 13.878486,4.8536666 13.679268,4.7898885 13.505493,4.734256 13.330802,4.6812587 13.154753,4.6333089 12.956187,4.5792263 12.756372,4.5293996 12.555306,4.4855143 12.364463,4.4438603 11.979631,4.3759603 11.979631,4.3759603 Z M 7.4992839,9.020638 c 0.735193,10e-8 1.3311847,0.6478171 1.3311848,1.44694 -1e-7,0.799123 -0.5959918,1.44694 -1.3311848,1.44694 -0.7351931,0 -1.3311848,-0.647817 -1.3311849,-1.44694 1e-7,-0.7991229 0.5959918,-1.44694 1.3311849,-1.44694 z m 4.8410481,0.011886 c 0.735193,-1e-7 1.331185,0.6478173 1.331185,1.44694 0,0.799123 -0.595992,1.44694 -1.331185,1.44694 -0.735193,0 -1.331185,-0.647817 -1.331185,-1.44694 0,-0.7991227 0.595992,-1.4469401 1.331185,-1.44694 z"
       sodipodi:nodetypes="cscssssscscsssscsssssssssssssscssssscsscscczzsssssssssssccscscssssscssssssssssssssssscsssscssssssssss"
       inkscape:label="joystick" /></g></svg>
