<?xml version="1.0" encoding="UTF-8" standalone="no"?>
<!-- Created with Inkscape (http://www.inkscape.org/) -->

<svg
   width="75"
   height="75"
   viewBox="0 0 19.84375 19.84375"
   version="1.1"
   id="svg1"
   inkscape:version="1.4.2 (f4327f4, 2025-05-13)"
   sodipodi:docname="git.svg"
   xml:space="preserve"
   xmlns:inkscape="http://www.inkscape.org/namespaces/inkscape"
   xmlns:sodipodi="http://sodipodi.sourceforge.net/DTD/sodipodi-0.dtd"
   xmlns="http://www.w3.org/2000/svg"
   xmlns:svg="http://www.w3.org/2000/svg"><sodipodi:namedview
     id="namedview1"
     pagecolor="#ffffff"
     bordercolor="#000000"
     borderopacity="0.25"
     inkscape:showpageshadow="false"
     inkscape:pageopacity="0.0"
     inkscape:pagecheckerboard="true"
     inkscape:deskcolor="#d1d1d1"
     inkscape:document-units="px"
     showguides="false"
     inkscape:zoom="5.8083614"
     inkscape:cx="48.464615"
     inkscape:cy="46.915125"
     inkscape:window-width="1920"
     inkscape:window-height="1017"
     inkscape:window-x="-8"
     inkscape:window-y="-8"
     inkscape:window-maximized="1"
     inkscape:current-layer="layer1"
     showgrid="true"
     borderlayer="true"
     labelstyle="default"
     inkscape:antialias-rendering="true"
     inkscape:clip-to-page="false" /><defs
     id="defs1"><inkscape:path-effect
       effect="fillet_chamfer"
       id="path-effect3"
       is_visible="true"
       lpeversion="1"
       nodesatellites_param="F,0,0,1,0,0,0,1 @ F,0,0,1,0,0,0,1 @ F,0,0,1,0,0,0,1 @ F,0,0,1,0,0,0,1 @ F,0,0,1,0,0,0,1 @ F,0,0,1,0,0,0,1"
       radius="0"
       unit="px"
       method="auto"
       mode="F"
       chamfer_steps="1"
       flexible="false"
       use_knot_distance="true"
       apply_no_radius="true"
       apply_with_radius="true"
       only_selected="false"
       hide_knots="false" /><inkscape:path-effect
       effect="fillet_chamfer"
       id="path-effect2"
       is_visible="true"
       lpeversion="1"
       nodesatellites_param="F,0,0,1,0,0,0,1 @ F,0,0,1,0,0,0,1 @ F,0,0,1,0,0,0,1 @ F,0,0,1,0,0,0,1 @ F,0,0,1,0,0,0,1 @ F,0,0,1,0,0,0,1 @ F,0,0,1,0,0,0,1 @ F,0,0,1,0,0,0,1"
       radius="0"
       unit="px"
       method="auto"
       mode="F"
       chamfer_steps="1"
       flexible="false"
       use_knot_distance="true"
       apply_no_radius="true"
       apply_with_radius="true"
       only_selected="false"
       hide_knots="false" /></defs><g
     inkscape:label="Layer 1"
     inkscape:groupmode="layer"
     id="layer1"
     style="fill:#ff0101;fill-opacity:1"><path
       id="rect1"
       style="fill:#f05133;stroke-width:0.274058;opacity:1;fill-opacity:1"
       inkscape:label="square"
       d="M 8.1387225 -6.0960943 C 7.9307488 -5.8881205 7.8025476 -5.6006867 7.8025476 -5.2819662 L 7.8025476 -3.0164394 L 10.542373 -3.0164394 A 1.2754601 1.2754601 0 0 1 10.784639 -3.3544414 A 1.2754601 1.2754601 0 0 1 12.588656 -3.3548068 A 1.2754601 1.2754601 0 0 1 12.830556 -3.0164394 L 15.422757 -3.0164394 A 1.2754601 1.2754601 0 0 1 15.670138 -3.3661344 A 1.2754601 1.2754601 0 0 1 17.474155 -3.365769 A 1.2754601 1.2754601 0 0 1 17.474155 -1.5621173 A 1.2754601 1.2754601 0 0 1 15.670503 -1.5621173 A 1.2754601 1.2754601 0 0 1 15.410698 -1.9373909 L 13.026779 -1.9373909 L 16.171842 1.207672 A 1.2754601 1.2754601 0 0 1 17.428479 1.5310577 A 1.2754601 1.2754601 0 0 1 17.428479 3.3347094 A 1.2754601 1.2754601 0 0 1 15.624827 3.3347094 A 1.2754601 1.2754601 0 0 1 15.351502 1.9366601 L 12.150532 -1.2643101 A 1.2754601 1.2754601 0 0 1 10.784639 -1.5507897 A 1.2754601 1.2754601 0 0 1 10.520084 -1.9373909 L 7.802913 -1.9373909 L 7.8025476 4.8946342 C 7.8025476 5.5320752 8.315775 6.0453026 8.953216 6.0453026 L 19.129816 6.0453026 C 19.767257 6.0453026 20.280485 5.5320752 20.280485 4.8946342 L 20.280485 -5.2819662 C 20.280485 -5.9194072 19.767257 -6.4326346 19.129816 -6.4326346 L 8.953216 -6.4326346 C 8.6344955 -6.4326346 8.3466963 -6.304068 8.1387225 -6.0960943 z "
       transform="rotate(45)" /></g></svg>
