<?xml version="1.0" encoding="UTF-8" standalone="no"?>
<!-- Created with Inkscape (http://www.inkscape.org/) -->

<svg
   width="75"
   height="75"
   viewBox="0 0 19.84375 19.84375"
   version="1.1"
   id="svg1"
   inkscape:version="1.4.2 (f4327f4, 2025-05-13)"
   sodipodi:docname="rust.svg"
   xml:space="preserve"
   xmlns:inkscape="http://www.inkscape.org/namespaces/inkscape"
   xmlns:sodipodi="http://sodipodi.sourceforge.net/DTD/sodipodi-0.dtd"
   xmlns="http://www.w3.org/2000/svg"
   xmlns:svg="http://www.w3.org/2000/svg"><sodipodi:namedview
     id="namedview1"
     pagecolor="#ffffff"
     bordercolor="#000000"
     borderopacity="0.25"
     inkscape:showpageshadow="false"
     inkscape:pageopacity="0.0"
     inkscape:pagecheckerboard="true"
     inkscape:deskcolor="#d1d1d1"
     inkscape:document-units="px"
     showguides="false"
     inkscape:zoom="5.8083614"
     inkscape:cx="9.2108594"
     inkscape:cy="43.127482"
     inkscape:window-width="1920"
     inkscape:window-height="1017"
     inkscape:window-x="-8"
     inkscape:window-y="-8"
     inkscape:window-maximized="1"
     inkscape:current-layer="layer1"
     showgrid="true"
     borderlayer="true"
     labelstyle="default"
     inkscape:antialias-rendering="true"
     inkscape:clip-to-page="false" /><defs
     id="defs1"><inkscape:path-effect
       effect="fillet_chamfer"
       id="path-effect3"
       is_visible="true"
       lpeversion="1"
       nodesatellites_param="F,0,0,1,0,0,0,1 @ F,0,0,1,0,0,0,1 @ F,0,0,1,0,0,0,1 @ F,0,0,1,0,0,0,1 @ F,0,0,1,0,0,0,1 @ F,0,0,1,0,0,0,1"
       radius="0"
       unit="px"
       method="auto"
       mode="F"
       chamfer_steps="1"
       flexible="false"
       use_knot_distance="true"
       apply_no_radius="true"
       apply_with_radius="true"
       only_selected="false"
       hide_knots="false" /><inkscape:path-effect
       effect="fillet_chamfer"
       id="path-effect2"
       is_visible="true"
       lpeversion="1"
       nodesatellites_param="F,0,0,1,0,0,0,1 @ F,0,0,1,0,0,0,1 @ F,0,0,1,0,0,0,1 @ F,0,0,1,0,0,0,1 @ F,0,0,1,0,0,0,1 @ F,0,0,1,0,0,0,1 @ F,0,0,1,0,0,0,1 @ F,0,0,1,0,0,0,1"
       radius="0"
       unit="px"
       method="auto"
       mode="F"
       chamfer_steps="1"
       flexible="false"
       use_knot_distance="true"
       apply_no_radius="true"
       apply_with_radius="true"
       only_selected="false"
       hide_knots="false" /></defs><g
     inkscape:label="Layer 1"
     inkscape:groupmode="layer"
     id="layer1"
     style="fill:#ff0101;fill-opacity:1"><rect
       style="fill:#b0531b;fill-opacity:1;stroke-width:0.598849"
       id="base"
       width="19.84375"
       height="19.84375"
       x="0"
       y="0"
       sodipodi:type="rect"
       ry="4.7682381" /><path
       style="fill:#000000;fill-opacity:1"
       d="m 9.9728607,18.400158 c -0.04183,-0.0283 -0.1911286,-0.232654 -0.3317745,-0.454125 -0.1406459,-0.221471 -0.2984488,-0.402675 -0.350673,-0.402675 -0.052224,0 -0.2278167,0.157569 -0.3902056,0.350152 C 8.6057865,18.242676 8.299933,18.362224 8.2283341,18.156124 7.8692829,17.122581 7.8571884,17.114743 7.282715,17.543358 7.0762187,17.697425 6.8893235,17.822997 6.8673924,17.822407 6.7268713,17.818628 6.6403751,17.652718 6.5733048,17.258311 6.4634717,16.612436 6.4099896,16.576776 5.8966599,16.807145 5.2720357,17.087459 5.2210055,17.057885 5.1963048,16.401253 5.1815898,16.010075 5.1477678,15.845172 5.0766542,15.817884 c -0.054525,-0.02092 -0.3018552,0.0082 -0.5496218,0.06471 -0.5837165,0.133147 -0.6414645,0.09477 -0.5729509,-0.380783 0.029676,-0.205977 0.058065,-0.469045 0.063088,-0.584595 l 0.00913,-0.210092 -0.559567,-0.03501 C 2.795124,14.630086 2.7666067,14.581544 3.0467708,13.957256 3.2771395,13.443926 3.2414793,13.390444 2.5956051,13.280611 2.2011979,13.21354 2.0352873,13.127044 2.0315082,12.986523 2.0309184,12.964592 2.1564906,12.777697 2.3105574,12.571201 2.4646243,12.364704 2.590679,12.141995 2.590679,12.07629 c 0,-0.08359 -0.1419535,-0.17179 -0.4727051,-0.293713 -0.3961665,-0.146037 -0.4761762,-0.202808 -0.4941423,-0.35062 -0.016844,-0.138576 0.054438,-0.240348 0.3326443,-0.474936 0.1947448,-0.164211 0.3540815,-0.342265 0.3540815,-0.395675 0,-0.05341 -0.1884326,-0.213924 -0.4187391,-0.356697 -0.6274868,-0.3889963 -0.6274868,-0.4803315 0,-0.8693277 C 2.1221248,9.192548 2.3105574,9.0320343 2.3105574,8.9786241 2.3105574,8.9252139 2.1512207,8.74716 1.9564759,8.5829487 1.6782693,8.3483615 1.6069881,8.2465891 1.6238316,8.1080133 1.6417977,7.9602009 1.7218074,7.9034298 2.1179739,7.7573934 2.4487255,7.6354704 2.590679,7.5472682 2.590679,7.4636801 2.590679,7.3979756 2.4646243,7.1752658 2.3105574,6.9687696 2.1564906,6.7622733 2.0309184,6.5753781 2.0315082,6.5534469 2.0352873,6.4129259 2.2011979,6.3264297 2.5956051,6.2593594 3.2414793,6.1495263 3.2771395,6.0960442 3.0467708,5.5827145 2.7666067,4.9584259 2.795124,4.9098843 3.4667349,4.8678579 l 0.559567,-0.035015 -0.00913,-0.2100911 C 4.0121467,4.5072014 3.9837571,4.2441334 3.9540815,4.038156 3.8855679,3.5626058 3.9433159,3.5242266 4.5270324,3.657373 4.774799,3.7138888 5.0221288,3.74301 5.0766542,3.7220866 5.1477678,3.6947978 5.1815898,3.5298949 5.1963048,3.1387167 5.2210055,2.4820853 5.2720357,2.4525107 5.8966599,2.7328254 6.4099896,2.963194 6.4634717,2.9275339 6.5733048,2.2816596 6.6403751,1.8872524 6.7268713,1.7213419 6.8673924,1.7175628 6.8893235,1.716973 7.0762187,1.8425452 7.282715,1.996612 7.8571884,2.4252267 7.8692829,2.4173894 8.2283341,1.3838461 8.299933,1.1777457 8.6057865,1.297294 8.9002076,1.6464601 9.0625965,1.8390437 9.2391593,1.996612 9.2925695,1.996612 c 0.05341,0 0.213924,-0.1884326 0.3566972,-0.4187391 0.3889963,-0.62748677 0.4803313,-0.62748677 0.8693273,0 0.142774,0.2303065 0.303287,0.4187391 0.356697,0.4187391 0.05341,0 0.231465,-0.1593367 0.395676,-0.3540815 0.23616,-0.2800715 0.335952,-0.3496007 0.47743,-0.3326444 0.147448,0.017672 0.201262,0.087559 0.30638,0.3978929 0.139359,0.4114202 0.24211,0.5689546 0.371098,0.5689546 0.0461,0 0.252775,-0.1260547 0.459271,-0.2801216 0.206496,-0.1540668 0.393391,-0.279639 0.415323,-0.2790492 0.140521,0.00378 0.227017,0.1696896 0.294087,0.5640968 0.109833,0.6458743 0.163315,0.6815344 0.676645,0.4511658 0.624624,-0.2803147 0.675655,-0.2507401 0.700355,0.4058913 0.01472,0.3911782 0.04854,0.5560811 0.119651,0.5833699 0.05452,0.020923 0.301855,-0.0082 0.549622,-0.064714 0.583716,-0.1331464 0.641464,-0.094767 0.572951,0.380783 -0.02968,0.2059774 -0.05807,0.4690454 -0.06309,0.5845956 l -0.0091,0.2100911 0.559567,0.035015 c 0.671611,0.042026 0.700128,0.090568 0.419964,0.7148566 -0.230368,0.5133297 -0.194708,0.5668118 0.451166,0.6766449 0.394407,0.06707 0.560318,0.1535665 0.564097,0.2940875 5.9e-4,0.021931 -0.124983,0.2088264 -0.279049,0.4153227 -0.154067,0.2064962 -0.280122,0.429206 -0.280122,0.4949105 0,0.083588 0.141953,0.1717903 0.472705,0.2937133 0.396167,0.1460364 0.476176,0.2028075 0.494142,0.3506199 0.01684,0.1385758 -0.05444,0.2403482 -0.332644,0.4749354 -0.194745,0.1642113 -0.354081,0.3422652 -0.354081,0.3956754 0,0.05341 0.188432,0.2139239 0.418739,0.3566972 0.425866,0.264006 0.514199,0.3658331 0.452999,0.5222018 -0.01884,0.048146 -0.222693,0.2043529 -0.452999,0.3471259 -0.230307,0.142773 -0.418739,0.303287 -0.418739,0.356697 0,0.05341 0.159336,0.231464 0.354081,0.395675 0.278207,0.234588 0.349488,0.33636 0.332644,0.474936 -0.01797,0.147812 -0.09797,0.204583 -0.494142,0.35062 -0.330752,0.121923 -0.472705,0.210125 -0.472705,0.293713 0,0.0657 0.126055,0.288414 0.280122,0.494911 0.154066,0.206496 0.279639,0.393391 0.279049,0.415322 -0.0038,0.140521 -0.16969,0.227017 -0.564097,0.294088 -0.645874,0.109833 -0.681534,0.163315 -0.451166,0.676645 0.280164,0.624288 0.251647,0.67283 -0.419964,0.714856 l -0.559567,0.03501 0.0091,0.210092 c 0.005,0.11555 0.03341,0.378618 0.06309,0.584595 0.06851,0.47555 0.01076,0.51393 -0.572951,0.380783 -0.247767,-0.05652 -0.495097,-0.08564 -0.549622,-0.06471 -0.07111,0.02729 -0.104936,0.192191 -0.119651,0.583369 -0.0247,0.656632 -0.07573,0.686206 -0.700355,0.405892 -0.51333,-0.230369 -0.566812,-0.194709 -0.676645,0.451166 -0.06707,0.394407 -0.153566,0.560317 -0.294087,0.564096 -0.02193,5.9e-4 -0.208827,-0.124982 -0.415323,-0.279049 -0.206496,-0.154067 -0.413168,-0.280121 -0.459271,-0.280121 -0.128988,0 -0.231739,0.157534 -0.371098,0.568954 -0.105118,0.310334 -0.158932,0.380221 -0.30638,0.397893 -0.141478,0.01696 -0.24127,-0.05257 -0.47743,-0.332644 -0.164211,-0.194745 -0.341295,-0.354082 -0.393519,-0.354082 -0.05222,0 -0.210027,0.181204 -0.350673,0.402675 -0.236086,0.371757 -0.3533,0.505575 -0.442845,0.505575 -0.01926,0 -0.06924,-0.02315 -0.1110693,-0.05145 z m 1.6293113,-2.461773 c 0.314137,-0.08021 0.713778,-0.206963 0.888092,-0.281683 0.266123,-0.114074 0.323,-0.173014 0.354767,-0.367638 0.233324,-1.42947 0.206753,-1.404748 1.326546,-1.234289 l 0.551111,0.08389 0.199831,-0.240998 c 0.109908,-0.132548 0.200679,-0.264633 0.201716,-0.29352 0.001,-0.02889 -0.625972,-0.05252 -1.393351,-0.05252 -1.37651,0 -1.397957,-0.0023 -1.598084,-0.170686 -0.265562,-0.223456 -0.39822,-0.541068 -0.613412,-1.468639 -0.313981,-1.3534 -0.449572,-1.466262 -1.803117,-1.50086 l -0.9629179,-0.02461 v 0.601974 0.601974 h 0.7353191 0.7353188 v 0.980426 0.980425 H 7.5945517 4.9651121 l 0.2308988,0.287666 c 0.2282348,0.284347 0.2349386,0.287134 0.5810507,0.241592 0.1925836,-0.02534 0.5234772,-0.0638 0.7353191,-0.08547 0.5694331,-0.05824 0.5969607,-0.0143 0.810449,1.293649 0.031714,0.1943 0.088701,0.253589 0.3523815,0.366615 0.3611843,0.154822 1.02464,0.337097 1.5333394,0.421264 0.5589517,0.09248 1.7613324,0.02288 2.3936214,-0.138558 z M 6.6012168,15.362166 c 0.2805716,-0.377434 -0.1223745,-0.879214 -0.5603541,-0.697797 -0.3600707,0.149146 -0.4327856,0.492519 -0.169198,0.798982 0.1613887,0.187641 0.5554801,0.132982 0.7295521,-0.101185 z m 7.7023782,0.09779 c 0.236044,-0.263992 0.156082,-0.657785 -0.160167,-0.78878 -0.270521,-0.112053 -0.531183,-0.0086 -0.629415,0.249743 -0.09308,0.244818 -0.08973,0.265722 0.07652,0.47707 0.173474,0.220537 0.542597,0.252615 0.713062,0.06197 z M 5.9521376,9.5248787 V 7.4589823 H 5.4194172 c -0.4809245,0 -0.5275498,0.011916 -0.4795412,0.1225532 0.1041936,0.2401179 0.1170145,0.5801627 0.026008,0.6898182 C 4.9156108,8.3319298 4.6327907,8.50301 4.3373953,8.6515318 3.871553,8.8857528 3.7944005,8.9511336 3.7557391,9.144441 c -0.096424,0.4821189 -0.00347,1.679356 0.1722576,2.218735 l 0.074152,0.227599 h 0.9749944 0.9749944 z m 9.5167504,1.8248853 c 0.128012,-0.127933 0.177726,-0.272529 0.210091,-0.61107 l 0.0424,-0.443481 0.367659,-0.02117 0.36766,-0.02117 V 9.8100943 c 0,-0.8057721 -0.02646,-0.8570133 -0.587289,-1.1372801 -0.274,-0.136928 -0.553331,-0.2976152 -0.620735,-0.3570827 -0.189716,-0.1673772 -0.147195,-0.4606964 0.153475,-1.0586994 l 0.276028,-0.5489932 -0.24804,-0.377355 C 14.574831,5.0294694 13.178946,4.0066933 11.74637,3.6315605 l -0.473487,-0.1239868 -0.473681,0.470051 c -0.648411,0.6434431 -0.782132,0.6434431 -1.4305435,0 L 8.8949779,3.5075737 8.4214908,3.6315605 C 7.4744835,3.8795429 6.0738956,4.7031549 5.5035938,5.3474221 l -0.133407,0.1507093 3.6147918,0 c 3.5336944,0 3.6238844,0.0034 4.0200934,0.15144 0.559646,0.2091104 1.209238,0.856788 1.382185,1.378113 0.280608,0.8458516 0.03148,1.6203074 -0.717676,2.2310014 -0.203225,0.1656645 -0.33854,0.3012081 -0.3007,0.3012081 0.131891,0 0.630664,0.7863561 0.776235,1.2237971 0.08065,0.242361 0.201087,0.489931 0.267633,0.550153 0.324534,0.2937 0.771444,0.300436 1.056139,0.01592 z M 11.400009,8.4849089 C 11.717967,8.3163663 11.813311,8.0480992 11.638821,7.8129688 11.401243,7.4928246 11.250547,7.4611164 9.9613773,7.4600147 l -1.2080242,-0.00103 v 0.5485714 c 0,0.3017142 0.023635,0.5727596 0.052523,0.602323 0.028887,0.029563 0.5724984,0.041044 1.2080241,0.025512 0.925436,-0.022617 1.201416,-0.052578 1.386109,-0.1504797 z M 4.1313475,8.0892558 C 4.3275991,7.8930042 4.3192347,7.5004232 4.1157653,7.3579077 3.8769785,7.1906549 3.6031498,7.2210755 3.4361265,7.4334113 3.2455202,7.6757279 3.2528803,7.8474285 3.4628756,8.0574238 3.6710765,8.2656247 3.942074,8.2785293 4.1313475,8.0892558 Z M 16.704985,8.0574238 c 0.209996,-0.2099953 0.217356,-0.3816959 0.02675,-0.6240125 -0.279151,-0.3548829 -0.835282,-0.172022 -0.835282,0.2746483 0,0.477755 0.474927,0.6829695 0.808532,0.3493642 z M 10.40225,3.5054486 c 0.335476,-0.3354758 0.149233,-0.8085327 -0.31832,-0.8085327 -0.2018744,0 -0.3003383,0.040203 -0.3811956,0.155643 -0.1672529,0.2387868 -0.1368322,0.5126155 0.075504,0.6796388 0.242317,0.1906064 0.414017,0.1832462 0.624012,-0.026749 z"
       id="path1"
       inkscape:label="gear" /></g></svg>
